<mxfile host="app.diagrams.net" agent="Mozilla/5.0 (Windows NT 10.0; Win64; x64) AppleWebKit/537.36 (KHTML, like Gecko) Chrome/120.0.0.0 Safari/537.36" version="24.8.0" pages="2">
  <diagram name="入职" id="394QF5HkSigVWSSdKdKR">
    <mxGraphModel dx="1124" dy="460" grid="0" gridSize="10" guides="1" tooltips="1" connect="1" arrows="1" fold="1" page="0" pageScale="1" pageWidth="827" pageHeight="1169" math="0" shadow="0">
      <root>
        <mxCell id="0" />
        <mxCell id="1" parent="0" />
        <mxCell id="weRAwSlCAQTy1J870j7T-2" value="Pool" style="swimlane;childLayout=stackLayout;resizeParent=1;resizeParentMax=0;startSize=20;horizontal=0;horizontalStack=1;" vertex="1" parent="1">
          <mxGeometry x="-142" y="358" width="500" height="480" as="geometry" />
        </mxCell>
        <mxCell id="weRAwSlCAQTy1J870j7T-3" value="工单中心" style="swimlane;startSize=20;" vertex="1" parent="weRAwSlCAQTy1J870j7T-2">
          <mxGeometry x="20" width="120" height="480" as="geometry" />
        </mxCell>
        <mxCell id="weRAwSlCAQTy1J870j7T-12" style="edgeStyle=none;curved=1;rounded=0;orthogonalLoop=1;jettySize=auto;html=1;entryX=0.5;entryY=0;entryDx=0;entryDy=0;fontSize=12;startSize=8;endSize=8;" edge="1" parent="weRAwSlCAQTy1J870j7T-3" source="weRAwSlCAQTy1J870j7T-1" target="weRAwSlCAQTy1J870j7T-11">
          <mxGeometry relative="1" as="geometry" />
        </mxCell>
        <mxCell id="weRAwSlCAQTy1J870j7T-1" value="开始" style="html=1;dashed=0;whiteSpace=wrap;shape=mxgraph.dfd.start" vertex="1" parent="weRAwSlCAQTy1J870j7T-3">
          <mxGeometry x="20" y="41" width="80" height="30" as="geometry" />
        </mxCell>
        <mxCell id="weRAwSlCAQTy1J870j7T-11" value="填入入场人员信息" style="rounded=0;whiteSpace=wrap;html=1;" vertex="1" parent="weRAwSlCAQTy1J870j7T-3">
          <mxGeometry x="19" y="110" width="82" height="60" as="geometry" />
        </mxCell>
        <mxCell id="weRAwSlCAQTy1J870j7T-4" value="4A" style="swimlane;startSize=20;" vertex="1" parent="weRAwSlCAQTy1J870j7T-2">
          <mxGeometry x="140" width="120" height="480" as="geometry" />
        </mxCell>
        <mxCell id="weRAwSlCAQTy1J870j7T-5" value="流水线" style="swimlane;startSize=20;" vertex="1" parent="weRAwSlCAQTy1J870j7T-2">
          <mxGeometry x="260" width="120" height="480" as="geometry" />
        </mxCell>
        <mxCell id="weRAwSlCAQTy1J870j7T-6" value="其他业务系统" style="swimlane;startSize=20;" vertex="1" parent="weRAwSlCAQTy1J870j7T-2">
          <mxGeometry x="380" width="120" height="480" as="geometry" />
        </mxCell>
      </root>
    </mxGraphModel>
  </diagram>
  <diagram id="UgyH6NhQYJrUJ4Tl2Df5" name="数据流图">
    <mxGraphModel dx="1450" dy="667" grid="0" gridSize="10" guides="1" tooltips="1" connect="1" arrows="1" fold="1" page="0" pageScale="1" pageWidth="827" pageHeight="1169" math="0" shadow="0">
      <root>
        <mxCell id="0" />
        <mxCell id="1" parent="0" />
        <mxCell id="XwG2M5gsoZx2esYeOmDs-9" value="" style="edgeStyle=orthogonalEdgeStyle;rounded=0;orthogonalLoop=1;jettySize=auto;html=1;fontSize=12;startSize=8;endSize=8;" edge="1" parent="1" source="XwG2M5gsoZx2esYeOmDs-2" target="XwG2M5gsoZx2esYeOmDs-8">
          <mxGeometry relative="1" as="geometry">
            <Array as="points">
              <mxPoint x="88" y="181" />
              <mxPoint x="88" y="88" />
            </Array>
          </mxGeometry>
        </mxCell>
        <mxCell id="XwG2M5gsoZx2esYeOmDs-16" value="工单中心" style="swimlane;" vertex="1" parent="1">
          <mxGeometry x="-172" y="19" width="200" height="200" as="geometry" />
        </mxCell>
        <mxCell id="XwG2M5gsoZx2esYeOmDs-1" value="开始" style="strokeWidth=2;html=1;shape=mxgraph.flowchart.start_1;whiteSpace=wrap;" vertex="1" parent="XwG2M5gsoZx2esYeOmDs-16">
          <mxGeometry x="59" y="34" width="100" height="60" as="geometry" />
        </mxCell>
        <mxCell id="XwG2M5gsoZx2esYeOmDs-2" value="合作伙伴入场人员信息" style="whiteSpace=wrap;html=1;strokeWidth=2;" vertex="1" parent="XwG2M5gsoZx2esYeOmDs-16">
          <mxGeometry x="49" y="132" width="120" height="60" as="geometry" />
        </mxCell>
        <mxCell id="XwG2M5gsoZx2esYeOmDs-12" value="" style="edgeStyle=none;curved=1;rounded=0;orthogonalLoop=1;jettySize=auto;html=1;fontSize=12;startSize=8;endSize=8;" edge="1" parent="XwG2M5gsoZx2esYeOmDs-16" source="XwG2M5gsoZx2esYeOmDs-1" target="XwG2M5gsoZx2esYeOmDs-2">
          <mxGeometry relative="1" as="geometry" />
        </mxCell>
        <mxCell id="XwG2M5gsoZx2esYeOmDs-17" value="4A" style="swimlane;" vertex="1" parent="1">
          <mxGeometry x="137" y="15" width="200" height="200" as="geometry" />
        </mxCell>
        <mxCell id="XwG2M5gsoZx2esYeOmDs-8" value="&lt;div&gt;接收合作伙伴人员信息&lt;/div&gt;&lt;div&gt;本地产生合作伙伴账号&lt;/div&gt;" style="whiteSpace=wrap;html=1;strokeWidth=2;" vertex="1" parent="XwG2M5gsoZx2esYeOmDs-17">
          <mxGeometry x="27" y="43" width="126" height="60" as="geometry" />
        </mxCell>
        <mxCell id="XwG2M5gsoZx2esYeOmDs-14" value="根据账号类型配置的推送系统，推送账号信息" style="whiteSpace=wrap;html=1;strokeWidth=2;" vertex="1" parent="XwG2M5gsoZx2esYeOmDs-17">
          <mxGeometry x="30" y="132" width="120" height="60" as="geometry" />
        </mxCell>
        <mxCell id="XwG2M5gsoZx2esYeOmDs-15" value="" style="edgeStyle=none;curved=1;rounded=0;orthogonalLoop=1;jettySize=auto;html=1;fontSize=12;startSize=8;endSize=8;" edge="1" parent="XwG2M5gsoZx2esYeOmDs-17" source="XwG2M5gsoZx2esYeOmDs-8" target="XwG2M5gsoZx2esYeOmDs-14">
          <mxGeometry relative="1" as="geometry" />
        </mxCell>
        <mxCell id="XwG2M5gsoZx2esYeOmDs-18" value="流水线" style="swimlane;" vertex="1" parent="1">
          <mxGeometry x="135" y="290" width="200" height="151" as="geometry" />
        </mxCell>
        <mxCell id="XwG2M5gsoZx2esYeOmDs-24" value="账号信息，包含" style="whiteSpace=wrap;html=1;strokeWidth=2;" vertex="1" parent="XwG2M5gsoZx2esYeOmDs-18">
          <mxGeometry x="32" y="42" width="120" height="60" as="geometry" />
        </mxCell>
        <mxCell id="XwG2M5gsoZx2esYeOmDs-23" style="edgeStyle=orthogonalEdgeStyle;rounded=0;orthogonalLoop=1;jettySize=auto;html=1;fontSize=12;startSize=8;endSize=8;entryX=1;entryY=0.5;entryDx=0;entryDy=0;exitX=1;exitY=0.5;exitDx=0;exitDy=0;" edge="1" parent="1" source="XwG2M5gsoZx2esYeOmDs-14" target="XwG2M5gsoZx2esYeOmDs-24">
          <mxGeometry relative="1" as="geometry">
            <mxPoint x="227" y="265.3999938964844" as="targetPoint" />
            <Array as="points">
              <mxPoint x="369" y="177" />
              <mxPoint x="369" y="362" />
            </Array>
          </mxGeometry>
        </mxCell>
      </root>
    </mxGraphModel>
  </diagram>
</mxfile>
